# Blender v2.79 (sub 0) OBJ File: ''
# www.blender.org
o Cube_Cube.002
v -0.905211 -0.009939 1.614126
v -1.000000 -0.009939 1.519336
v -0.952605 -0.009939 1.601426
v -0.987301 -0.009939 1.566731
v -1.000000 0.009939 1.519336
v -0.905211 0.009939 1.614126
v -0.987301 0.009939 1.566731
v -0.952605 0.009939 1.601426
v -1.000000 0.000000 1.519336
v -0.905211 0.000000 1.614126
v -0.987301 0.000000 1.566731
v -0.952605 0.000000 1.601426
v 0.000000 -0.009939 1.614126
v 0.000000 0.009939 1.614126
v 0.000000 0.000000 1.614126
v 0.905211 -0.009939 1.614126
v 1.000000 -0.009939 1.519336
v 0.952605 -0.009939 1.601426
v 0.987301 -0.009939 1.566731
v 1.000000 0.009939 1.519336
v 0.905211 0.009939 1.614126
v 0.987301 0.009939 1.566731
v 0.952605 0.009939 1.601426
v 1.000000 0.000000 1.519336
v 0.905211 0.000000 1.614126
v 0.987301 0.000000 1.566731
v 0.952605 0.000000 1.601426
v -1.000000 -0.009939 0.000000
v -1.000000 0.009939 0.000000
v -1.000000 0.000000 0.000000
v -0.905211 -0.009939 -1.614126
v -1.000000 -0.009939 -1.519336
v -0.952605 -0.009939 -1.601426
v -0.987301 -0.009939 -1.566731
v -1.000000 0.009939 -1.519336
v -0.905211 0.009939 -1.614126
v -0.987301 0.009939 -1.566731
v -0.952605 0.009939 -1.601426
v -1.000000 0.000000 -1.519336
v -0.905211 0.000000 -1.614126
v -0.987301 0.000000 -1.566731
v -0.952605 0.000000 -1.601426
v 1.000000 -0.009939 0.000000
v 1.000000 0.009939 0.000000
v 0.000000 -0.009939 -1.614126
v 0.000000 0.009939 -1.614126
v 0.000000 0.009939 0.000000
v 0.000000 -0.009939 0.000000
v 0.000000 0.000000 -1.614126
v 1.000000 0.000000 0.000000
v 0.905211 -0.009939 -1.614126
v 1.000000 -0.009939 -1.519336
v 0.952605 -0.009939 -1.601426
v 0.987301 -0.009939 -1.566731
v 1.000000 0.009939 -1.519336
v 0.905211 0.009939 -1.614126
v 0.987301 0.009939 -1.566731
v 0.952605 0.009939 -1.601426
v 1.000000 0.000000 -1.519336
v 0.905211 0.000000 -1.614126
v 0.987301 0.000000 -1.566731
v 0.952605 0.000000 -1.601426
vn 0.0000 1.0000 0.0000
vn -1.0000 0.0000 0.0000
vn 0.0000 -1.0000 0.0000
vn 0.0000 0.0000 1.0000
vn -0.2588 0.0000 0.9659
vn -0.7071 0.0000 0.7071
vn -0.9659 0.0000 0.2588
vn 1.0000 0.0000 0.0000
vn 0.2588 0.0000 0.9659
vn 0.7071 0.0000 0.7071
vn 0.9659 0.0000 0.2588
vn 0.0000 0.0000 -1.0000
vn -0.2588 0.0000 -0.9659
vn -0.7071 0.0000 -0.7071
vn -0.9659 0.0000 -0.2588
vn 0.2588 0.0000 -0.9659
vn 0.7071 0.0000 -0.7071
vn 0.9659 0.0000 -0.2588
s off
f 6//1 14//1 5//1
f 5//2 30//2 9//2
f 4//3 2//3 1//3
f 15//4 1//4 13//4
f 14//4 10//4 15//4
f 6//5 12//5 10//5
f 8//6 11//6 12//6
f 7//7 9//7 11//7
f 10//5 3//5 1//5
f 3//6 11//6 4//6
f 11//7 2//7 4//7
f 9//2 28//2 2//2
f 23//1 22//1 20//1
f 50//8 20//8 24//8
f 13//3 48//3 17//3
f 16//4 15//4 13//4
f 25//4 14//4 15//4
f 27//9 21//9 25//9
f 26//10 23//10 27//10
f 24//11 22//11 26//11
f 18//9 25//9 16//9
f 18//10 26//10 27//10
f 17//11 26//11 19//11
f 43//8 24//8 17//8
f 38//1 37//1 35//1
f 30//2 35//2 39//2
f 45//3 48//3 32//3
f 31//12 49//12 45//12
f 40//12 46//12 49//12
f 42//13 36//13 40//13
f 41//14 38//14 42//14
f 39//15 37//15 41//15
f 33//13 40//13 31//13
f 33//14 41//14 42//14
f 32//15 41//15 34//15
f 28//2 39//2 32//2
f 56//1 46//1 55//1
f 55//8 50//8 59//8
f 54//3 52//3 51//3
f 49//12 51//12 45//12
f 46//12 60//12 49//12
f 56//16 62//16 60//16
f 58//17 61//17 62//17
f 57//18 59//18 61//18
f 60//16 53//16 51//16
f 53//17 61//17 54//17
f 61//18 52//18 54//18
f 59//8 43//8 52//8
f 14//1 47//1 5//1
f 47//1 29//1 5//1
f 5//1 7//1 6//1
f 7//1 8//1 6//1
f 5//2 29//2 30//2
f 2//3 28//3 48//3
f 48//3 13//3 2//3
f 13//3 1//3 2//3
f 1//3 3//3 4//3
f 15//4 10//4 1//4
f 14//4 6//4 10//4
f 6//5 8//5 12//5
f 8//6 7//6 11//6
f 7//7 5//7 9//7
f 10//5 12//5 3//5
f 3//6 12//6 11//6
f 11//7 9//7 2//7
f 9//2 30//2 28//2
f 44//1 47//1 20//1
f 47//1 14//1 20//1
f 14//1 21//1 20//1
f 21//1 23//1 20//1
f 50//8 44//8 20//8
f 48//3 43//3 17//3
f 17//3 19//3 18//3
f 18//3 16//3 17//3
f 16//3 13//3 17//3
f 16//4 25//4 15//4
f 25//4 21//4 14//4
f 27//9 23//9 21//9
f 26//10 22//10 23//10
f 24//11 20//11 22//11
f 18//9 27//9 25//9
f 18//10 19//10 26//10
f 17//11 24//11 26//11
f 43//8 50//8 24//8
f 29//1 47//1 35//1
f 47//1 46//1 35//1
f 46//1 36//1 35//1
f 36//1 38//1 35//1
f 30//2 29//2 35//2
f 48//3 28//3 32//3
f 32//3 34//3 33//3
f 33//3 31//3 32//3
f 31//3 45//3 32//3
f 31//12 40//12 49//12
f 40//12 36//12 46//12
f 42//13 38//13 36//13
f 41//14 37//14 38//14
f 39//15 35//15 37//15
f 33//13 42//13 40//13
f 33//14 34//14 41//14
f 32//15 39//15 41//15
f 28//2 30//2 39//2
f 46//1 47//1 55//1
f 47//1 44//1 55//1
f 55//1 57//1 56//1
f 57//1 58//1 56//1
f 55//8 44//8 50//8
f 52//3 43//3 48//3
f 48//3 45//3 52//3
f 45//3 51//3 52//3
f 51//3 53//3 54//3
f 49//12 60//12 51//12
f 46//12 56//12 60//12
f 56//16 58//16 62//16
f 58//17 57//17 61//17
f 57//18 55//18 59//18
f 60//16 62//16 53//16
f 53//17 62//17 61//17
f 61//18 59//18 52//18
f 59//8 50//8 43//8
