# Blender v2.79 (sub 0) OBJ File: ''
# www.blender.org
o Sphere
v 0.000000 0.707107 -0.707107
v 0.000000 0.382683 -0.923880
v 0.000000 -0.382684 -0.923880
v 0.000000 -0.923880 -0.382683
v 0.146447 0.923880 -0.353553
v 0.270598 0.707107 -0.653281
v 0.353553 0.382683 -0.853553
v 0.382683 -0.000000 -0.923880
v 0.353553 -0.382684 -0.853553
v 0.270598 -0.707107 -0.653281
v 0.146447 -0.923880 -0.353553
v 0.270598 0.923880 -0.270598
v 0.500000 0.707107 -0.500000
v 0.653281 0.382683 -0.653281
v 0.707107 -0.000000 -0.707107
v 0.653281 -0.382684 -0.653281
v 0.500000 -0.707107 -0.500000
v 0.270598 -0.923880 -0.270598
v 0.353553 0.923880 -0.146447
v 0.653281 0.707107 -0.270598
v 0.853553 0.382683 -0.353553
v 0.923879 -0.000000 -0.382683
v 0.853553 -0.382684 -0.353553
v 0.653281 -0.707107 -0.270598
v 0.353553 -0.923880 -0.146447
v 0.382683 0.923880 -0.000000
v 0.707107 0.707107 -0.000000
v 0.923879 0.382683 -0.000000
v 1.000000 -0.000000 -0.000000
v 0.923879 -0.382684 -0.000000
v 0.707107 -0.707107 -0.000000
v 0.382683 -0.923880 -0.000000
v 0.353553 0.923880 0.146446
v 0.653281 0.707107 0.270598
v 0.853553 0.382683 0.353553
v 0.923879 -0.000000 0.382683
v 0.853553 -0.382684 0.353553
v 0.653281 -0.707107 0.270598
v 0.353553 -0.923880 0.146446
v 0.270598 0.923880 0.270598
v 0.500000 0.707107 0.500000
v 0.653281 0.382683 0.653281
v 0.707106 -0.000000 0.707107
v 0.653281 -0.382684 0.653281
v 0.500000 -0.707107 0.500000
v 0.270598 -0.923880 0.270598
v 0.146446 0.923880 0.353553
v 0.270598 0.707107 0.653281
v 0.353553 0.382683 0.853553
v 0.382683 -0.000000 0.923879
v 0.353553 -0.382684 0.853553
v 0.270598 -0.707107 0.653281
v 0.146446 -0.923880 0.353553
v -0.000000 0.923880 0.382683
v -0.000000 0.707107 0.707106
v -0.000000 0.382683 0.923879
v -0.000000 -0.000000 1.000000
v -0.000000 -0.382684 0.923879
v -0.000000 -0.707107 0.707106
v -0.000000 -0.923880 0.382683
v -0.146447 0.923880 0.353553
v -0.270598 0.707107 0.653281
v -0.353554 0.382683 0.853553
v -0.382684 -0.000000 0.923879
v -0.353554 -0.382684 0.853553
v -0.270598 -0.707107 0.653281
v -0.146447 -0.923880 0.353553
v -0.270598 0.923880 0.270598
v -0.500000 0.707107 0.499999
v -0.653282 0.382683 0.653281
v -0.707107 -0.000000 0.707106
v -0.653282 -0.382684 0.653281
v -0.500000 -0.707107 0.499999
v -0.270598 -0.923880 0.270598
v -0.353553 0.923880 0.146446
v -0.653281 0.707107 0.270597
v -0.853553 0.382683 0.353553
v -0.923879 -0.000000 0.382683
v -0.853553 -0.382684 0.353553
v -0.653281 -0.707107 0.270597
v -0.353553 -0.923880 0.146446
v -0.382683 0.923880 -0.000000
v -0.707106 0.707107 -0.000000
v -0.923879 0.382683 -0.000001
v -1.000000 -0.000000 -0.000001
v -0.923879 -0.382684 -0.000001
v -0.707106 -0.707107 -0.000000
v -0.382683 -0.923880 -0.000000
v -0.353553 0.923880 -0.146447
v -0.653281 0.707107 -0.270598
v -0.853553 0.382683 -0.353554
v -0.923879 -0.000000 -0.382684
v -0.853553 -0.382684 -0.353554
v -0.653281 -0.707107 -0.270598
v -0.353553 -0.923880 -0.146447
v -0.270598 0.923880 -0.270598
v -0.499999 0.707107 -0.500000
v -0.653281 0.382683 -0.653282
v -0.707106 -0.000000 -0.707107
v -0.653281 -0.382684 -0.653282
v -0.499999 -0.707107 -0.500000
v -0.270598 -0.923880 -0.270598
v -0.146446 0.923880 -0.353553
v -0.270598 0.707107 -0.653281
v -0.353553 0.382683 -0.853553
v -0.382683 -0.000000 -0.923880
v -0.353553 -0.382684 -0.853553
v -0.270598 -0.707107 -0.653281
v -0.146446 -0.923880 -0.353553
v -0.000000 1.000000 -0.000000
v 0.000000 0.923880 -0.382683
v 0.000001 -0.000000 -1.000000
v 0.000000 -0.707107 -0.707106
v 0.000000 -1.000000 -0.000000
vn 0.1915 -0.1915 -0.9626
vn 0.1632 0.5481 -0.8203
vn 0.0388 0.9800 -0.1949
vn 0.0388 -0.9800 -0.1949
vn 0.1632 -0.5481 -0.8203
vn 0.1915 0.1915 -0.9626
vn 0.1098 0.8264 -0.5522
vn 0.1098 -0.8264 -0.5522
vn 0.1104 -0.9800 -0.1653
vn 0.4647 -0.5481 -0.6954
vn 0.5453 0.1915 -0.8161
vn 0.3128 0.8264 -0.4681
vn 0.3128 -0.8264 -0.4681
vn 0.5453 -0.1915 -0.8161
vn 0.4647 0.5481 -0.6954
vn 0.1104 0.9800 -0.1653
vn 0.4681 0.8264 -0.3128
vn 0.4681 -0.8264 -0.3128
vn 0.8161 -0.1915 -0.5453
vn 0.6954 0.5481 -0.4647
vn 0.1653 0.9800 -0.1104
vn 0.1653 -0.9800 -0.1104
vn 0.6954 -0.5481 -0.4647
vn 0.8161 0.1915 -0.5453
vn 0.5522 -0.8264 -0.1098
vn 0.9626 -0.1915 -0.1915
vn 0.8203 0.5481 -0.1632
vn 0.1949 0.9800 -0.0388
vn 0.1949 -0.9800 -0.0388
vn 0.8203 -0.5481 -0.1632
vn 0.9626 0.1915 -0.1915
vn 0.5522 0.8264 -0.1098
vn 0.1949 0.9800 0.0388
vn 0.1949 -0.9800 0.0388
vn 0.8203 -0.5481 0.1632
vn 0.9626 0.1915 0.1915
vn 0.5522 0.8264 0.1098
vn 0.5522 -0.8264 0.1098
vn 0.9626 -0.1915 0.1915
vn 0.8203 0.5481 0.1632
vn 0.6954 -0.5481 0.4647
vn 0.8161 0.1915 0.5453
vn 0.4681 0.8264 0.3128
vn 0.4681 -0.8264 0.3128
vn 0.8161 -0.1915 0.5453
vn 0.6954 0.5481 0.4647
vn 0.1653 0.9800 0.1104
vn 0.1653 -0.9800 0.1104
vn 0.3128 -0.8264 0.4681
vn 0.5453 -0.1915 0.8161
vn 0.4647 0.5481 0.6954
vn 0.1104 0.9800 0.1653
vn 0.1104 -0.9800 0.1653
vn 0.4647 -0.5481 0.6954
vn 0.5453 0.1915 0.8161
vn 0.3128 0.8264 0.4681
vn 0.1915 -0.1915 0.9626
vn 0.1632 0.5481 0.8203
vn 0.0388 0.9800 0.1949
vn 0.0388 -0.9800 0.1949
vn 0.1632 -0.5481 0.8203
vn 0.1915 0.1915 0.9626
vn 0.1098 0.8264 0.5522
vn 0.1098 -0.8264 0.5522
vn -0.0388 -0.9800 0.1949
vn -0.1632 -0.5481 0.8203
vn -0.1915 0.1915 0.9626
vn -0.1098 0.8264 0.5522
vn -0.1098 -0.8264 0.5522
vn -0.1915 -0.1915 0.9626
vn -0.1632 0.5481 0.8203
vn -0.0388 0.9800 0.1949
vn -0.5453 0.1915 0.8161
vn -0.3128 0.8264 0.4681
vn -0.3128 -0.8264 0.4681
vn -0.5453 -0.1915 0.8161
vn -0.4647 0.5481 0.6954
vn -0.1104 0.9800 0.1653
vn -0.1104 -0.9800 0.1653
vn -0.4647 -0.5481 0.6954
vn -0.4681 -0.8264 0.3128
vn -0.8161 -0.1915 0.5453
vn -0.6954 0.5481 0.4647
vn -0.1653 0.9800 0.1104
vn -0.1653 -0.9800 0.1104
vn -0.6954 -0.5481 0.4647
vn -0.8161 0.1915 0.5453
vn -0.4681 0.8264 0.3128
vn -0.8203 0.5481 0.1632
vn -0.1949 0.9800 0.0388
vn -0.1949 -0.9800 0.0388
vn -0.8203 -0.5481 0.1632
vn -0.9626 0.1915 0.1915
vn -0.5522 0.8264 0.1098
vn -0.5522 -0.8264 0.1098
vn -0.9626 -0.1915 0.1915
vn -0.1949 -0.9800 -0.0388
vn -0.8203 -0.5481 -0.1632
vn -0.9626 0.1915 -0.1915
vn -0.5522 0.8264 -0.1098
vn -0.5522 -0.8264 -0.1098
vn -0.9626 -0.1915 -0.1915
vn -0.8203 0.5481 -0.1632
vn -0.1949 0.9800 -0.0388
vn -0.4681 0.8264 -0.3128
vn -0.4681 -0.8264 -0.3128
vn -0.8161 -0.1915 -0.5453
vn -0.6954 0.5481 -0.4647
vn -0.1653 0.9800 -0.1104
vn -0.1653 -0.9800 -0.1104
vn -0.6954 -0.5481 -0.4647
vn -0.8161 0.1915 -0.5453
vn -0.3128 -0.8264 -0.4681
vn -0.5453 -0.1915 -0.8161
vn -0.4647 0.5481 -0.6954
vn -0.1104 0.9800 -0.1653
vn -0.1104 -0.9800 -0.1653
vn -0.4647 -0.5481 -0.6954
vn -0.5453 0.1915 -0.8161
vn -0.3128 0.8264 -0.4681
vn -0.0388 0.9800 -0.1949
vn -0.0388 -0.9800 -0.1949
vn -0.1632 -0.5481 -0.8203
vn -0.1915 0.1915 -0.9626
vn -0.1098 0.8264 -0.5522
vn -0.1098 -0.8264 -0.5522
vn -0.1915 -0.1915 -0.9626
vn -0.1632 0.5481 -0.8203
s off
f 112//1 9//1 3//1
f 1//2 7//2 2//2
f 111//3 110//3 5//3
f 114//4 4//4 11//4
f 113//5 9//5 10//5
f 112//6 7//6 8//6
f 111//7 6//7 1//7
f 113//8 11//8 4//8
f 114//9 11//9 18//9
f 9//10 17//10 10//10
f 7//11 15//11 8//11
f 5//12 13//12 6//12
f 10//13 18//13 11//13
f 8//14 16//14 9//14
f 6//15 14//15 7//15
f 5//16 110//16 12//16
f 13//17 19//17 20//17
f 18//18 24//18 25//18
f 15//19 23//19 16//19
f 13//20 21//20 14//20
f 12//21 110//21 19//21
f 114//22 18//22 25//22
f 16//23 24//23 17//23
f 15//24 21//24 22//24
f 25//25 31//25 32//25
f 22//26 30//26 23//26
f 20//27 28//27 21//27
f 19//28 110//28 26//28
f 114//29 25//29 32//29
f 23//30 31//30 24//30
f 21//31 29//31 22//31
f 20//32 26//32 27//32
f 26//33 110//33 33//33
f 114//34 32//34 39//34
f 30//35 38//35 31//35
f 28//36 36//36 29//36
f 27//37 33//37 34//37
f 31//38 39//38 32//38
f 29//39 37//39 30//39
f 28//40 34//40 35//40
f 37//41 45//41 38//41
f 35//42 43//42 36//42
f 34//43 40//43 41//43
f 38//44 46//44 39//44
f 36//45 44//45 37//45
f 34//46 42//46 35//46
f 33//47 110//47 40//47
f 114//48 39//48 46//48
f 46//49 52//49 53//49
f 43//50 51//50 44//50
f 41//51 49//51 42//51
f 40//52 110//52 47//52
f 114//53 46//53 53//53
f 44//54 52//54 45//54
f 43//55 49//55 50//55
f 41//56 47//56 48//56
f 50//57 58//57 51//57
f 48//58 56//58 49//58
f 47//59 110//59 54//59
f 114//60 53//60 60//60
f 51//61 59//61 52//61
f 49//62 57//62 50//62
f 48//63 54//63 55//63
f 53//64 59//64 60//64
f 114//65 60//65 67//65
f 58//66 66//66 59//66
f 56//67 64//67 57//67
f 55//68 61//68 62//68
f 60//69 66//69 67//69
f 57//70 65//70 58//70
f 55//71 63//71 56//71
f 54//72 110//72 61//72
f 64//73 70//73 71//73
f 61//74 69//74 62//74
f 66//75 74//75 67//75
f 64//76 72//76 65//76
f 62//77 70//77 63//77
f 61//78 110//78 68//78
f 114//79 67//79 74//79
f 66//80 72//80 73//80
f 73//81 81//81 74//81
f 71//82 79//82 72//82
f 70//83 76//83 77//83
f 68//84 110//84 75//84
f 114//85 74//85 81//85
f 72//86 80//86 73//86
f 70//87 78//87 71//87
f 69//88 75//88 76//88
f 76//89 84//89 77//89
f 75//90 110//90 82//90
f 114//91 81//91 88//91
f 80//92 86//92 87//92
f 77//93 85//93 78//93
f 76//94 82//94 83//94
f 81//95 87//95 88//95
f 78//96 86//96 79//96
f 114//97 88//97 95//97
f 87//98 93//98 94//98
f 85//99 91//99 92//99
f 83//100 89//100 90//100
f 87//101 95//101 88//101
f 85//102 93//102 86//102
f 83//103 91//103 84//103
f 82//104 110//104 89//104
f 90//105 96//105 97//105
f 94//106 102//106 95//106
f 92//107 100//107 93//107
f 90//108 98//108 91//108
f 89//109 110//109 96//109
f 114//110 95//110 102//110
f 93//111 101//111 94//111
f 92//112 98//112 99//112
f 101//113 109//113 102//113
f 99//114 107//114 100//114
f 97//115 105//115 98//115
f 96//116 110//116 103//116
f 114//117 102//117 109//117
f 100//118 108//118 101//118
f 98//119 106//119 99//119
f 97//120 103//120 104//120
f 103//121 110//121 111//121
f 114//122 109//122 4//122
f 108//123 3//123 113//123
f 106//124 2//124 112//124
f 103//125 1//125 104//125
f 108//126 4//126 109//126
f 106//127 3//127 107//127
f 105//128 1//128 2//128
f 112//1 8//1 9//1
f 1//2 6//2 7//2
f 113//5 3//5 9//5
f 112//6 2//6 7//6
f 111//7 5//7 6//7
f 113//8 10//8 11//8
f 9//10 16//10 17//10
f 7//11 14//11 15//11
f 5//12 12//12 13//12
f 10//13 17//13 18//13
f 8//14 15//14 16//14
f 6//15 13//15 14//15
f 13//17 12//17 19//17
f 18//18 17//18 24//18
f 15//19 22//19 23//19
f 13//20 20//20 21//20
f 16//23 23//23 24//23
f 15//24 14//24 21//24
f 25//25 24//25 31//25
f 22//26 29//26 30//26
f 20//27 27//27 28//27
f 23//30 30//30 31//30
f 21//31 28//31 29//31
f 20//32 19//32 26//32
f 30//35 37//35 38//35
f 28//36 35//36 36//36
f 27//37 26//37 33//37
f 31//38 38//38 39//38
f 29//39 36//39 37//39
f 28//40 27//40 34//40
f 37//41 44//41 45//41
f 35//42 42//42 43//42
f 34//43 33//43 40//43
f 38//44 45//44 46//44
f 36//45 43//45 44//45
f 34//46 41//46 42//46
f 46//49 45//49 52//49
f 43//50 50//50 51//50
f 41//51 48//51 49//51
f 44//54 51//54 52//54
f 43//55 42//55 49//55
f 41//56 40//56 47//56
f 50//57 57//57 58//57
f 48//58 55//58 56//58
f 51//61 58//61 59//61
f 49//62 56//62 57//62
f 48//63 47//63 54//63
f 53//64 52//64 59//64
f 58//66 65//66 66//66
f 56//67 63//67 64//67
f 55//68 54//68 61//68
f 60//69 59//69 66//69
f 57//70 64//70 65//70
f 55//71 62//71 63//71
f 64//73 63//73 70//73
f 61//74 68//74 69//74
f 66//75 73//75 74//75
f 64//76 71//76 72//76
f 62//77 69//77 70//77
f 66//80 65//80 72//80
f 73//81 80//81 81//81
f 71//82 78//82 79//82
f 70//83 69//83 76//83
f 72//86 79//86 80//86
f 70//87 77//87 78//87
f 69//88 68//88 75//88
f 76//89 83//89 84//89
f 80//92 79//92 86//92
f 77//93 84//93 85//93
f 76//94 75//94 82//94
f 81//95 80//95 87//95
f 78//96 85//96 86//96
f 87//98 86//98 93//98
f 85//99 84//99 91//99
f 83//100 82//100 89//100
f 87//101 94//101 95//101
f 85//102 92//102 93//102
f 83//103 90//103 91//103
f 90//105 89//105 96//105
f 94//106 101//106 102//106
f 92//107 99//107 100//107
f 90//108 97//108 98//108
f 93//111 100//111 101//111
f 92//112 91//112 98//112
f 101//113 108//113 109//113
f 99//114 106//114 107//114
f 97//115 104//115 105//115
f 100//118 107//118 108//118
f 98//119 105//119 106//119
f 97//120 96//120 103//120
f 108//123 107//123 3//123
f 106//124 105//124 2//124
f 103//125 111//125 1//125
f 108//126 113//126 4//126
f 106//127 112//127 3//127
f 105//128 104//128 1//128
